<?xml version="1.0" standalone="no"?>
<!DOCTYPE svg PUBLIC "-//W3C//DTD SVG 20010904//EN"
 "http://www.w3.org/TR/2001/REC-SVG-20010904/DTD/svg10.dtd">
<svg version="1.0" xmlns="http://www.w3.org/2000/svg"
 width="512.000000pt" height="512.000000pt" viewBox="0 0 512.000000 512.000000"
 preserveAspectRatio="xMidYMid meet">
<metadata>
Created by potrace 1.15, written by Peter Selinger 2001-2017
</metadata>
<g transform="translate(0.000000,512.000000) scale(0.100000,-0.100000)"
fill="#000000" stroke="none">
<path d="M2283 5085 c-251 -32 -495 -103 -713 -206 -131 -62 -280 -148 -280
-160 0 -4 21 -25 47 -45 27 -21 62 -51 80 -67 l32 -30 163 81 c90 45 218 100
286 122 540 176 1100 134 1608 -120 150 -75 155 -77 150 -51 -3 14 -10 62 -16
106 -19 140 -11 128 -111 174 -184 86 -367 142 -596 182 -156 27 -488 35 -650
14z"/>
<path d="M4060 4532 c0 -99 -17 -187 -46 -244 l-17 -32 -27 60 c-42 92 -112
165 -96 99 25 -100 -85 -349 -204 -460 -18 -17 -60 -87 -97 -160 -76 -152
-105 -193 -244 -340 -111 -117 -232 -263 -227 -274 87 -162 125 -314 107 -433
-12 -84 -13 -78 23 -117 l31 -35 29 35 c16 19 26 26 22 17 -11 -30 19 -21 49
14 15 18 24 25 21 16 -10 -30 11 -20 65 28 48 43 52 45 45 20 -3 -15 -2 -26 4
-26 18 0 67 47 87 84 20 38 35 46 35 21 0 -43 39 11 70 98 l19 52 0 -37 c2
-79 41 -19 41 62 0 51 8 61 30 35 7 -8 19 -15 28 -15 12 0 14 11 9 63 -3 34
-9 71 -12 82 -5 18 1 22 55 32 34 6 73 20 88 30 l27 18 -25 3 c-100 11 -101
12 -17 42 83 29 117 50 81 50 -11 0 -28 6 -39 13 -17 13 -16 15 13 25 59 21
242 150 242 172 0 4 -12 5 -27 2 l-28 -5 33 28 c41 35 165 186 158 193 -3 3
-11 0 -18 -5 -7 -6 -24 -14 -37 -18 l-24 -7 26 34 c28 36 50 84 61 133 l7 30
-33 -31 c-33 -32 -84 -63 -76 -47 2 4 23 46 46 93 46 93 82 220 82 284 l-1 41
-23 -45 c-13 -25 -33 -53 -44 -63 -20 -19 -20 -18 1 45 28 86 30 274 3 366
-20 67 -35 68 -36 2 -1 -47 -41 -161 -78 -217 l-29 -45 -7 52 c-4 28 -16 77
-28 108 -20 54 -84 172 -93 172 -3 0 -5 -44 -5 -98z"/>
<path d="M4527 3928 c-17 -43 -12 -57 22 -58 20 0 6 -62 -34 -146 l-34 -71 34
-82 c113 -268 161 -540 152 -860 -9 -325 -72 -580 -213 -867 -108 -219 -240
-399 -425 -580 -199 -194 -427 -345 -671 -444 -55 -22 -74 -45 -82 -95 -1 -5
-7 -23 -14 -38 -6 -15 -15 -40 -18 -55 -3 -15 -8 -34 -11 -42 -19 -50 -13 -51
114 -5 715 258 1276 870 1462 1598 119 464 96 955 -66 1398 -42 116 -172 381
-189 386 -6 2 -18 -15 -27 -39z"/>
<path d="M295 3308 c-4 -13 -29 -144 -39 -208 -29 -178 -24 -506 10 -710 136
-807 685 -1482 1452 -1784 167 -66 392 -121 392 -97 0 6 -13 11 -30 11 -16 0
-30 5 -30 11 0 6 8 8 18 5 9 -3 24 -1 32 4 13 8 13 10 0 14 -8 3 -33 7 -55 9
l-40 3 53 8 c28 5 52 12 52 17 0 5 -24 10 -52 10 l-53 1 55 13 c58 13 53 22
-15 28 -35 3 -33 4 13 5 66 2 69 22 2 22 -27 0 -50 5 -50 10 0 6 23 10 50 10
28 0 50 5 50 10 0 6 -22 10 -49 10 -28 0 -51 5 -53 12 -5 13 -81 38 -117 38
-13 0 -21 3 -18 7 4 3 -39 25 -95 48 -57 23 -132 56 -167 73 -36 18 -69 32
-74 32 -9 0 -38 20 -230 159 -259 188 -496 472 -641 765 -143 291 -205 544
-213 876 -5 187 -1 243 33 466 l6 41 -90 46 c-100 52 -101 52 -107 35z"/>
<path d="M3105 2393 c-15 -21 -44 -55 -63 -75 -20 -21 -34 -40 -31 -42 2 -2
40 -25 84 -51 l79 -47 33 38 c18 22 33 44 33 50 0 8 -87 143 -105 162 -1 1
-15 -14 -30 -35z"/>
<path d="M3231 2216 c-33 -34 -34 -35 -27 -104 4 -38 10 -81 14 -95 l7 -25 57
41 c32 23 57 45 58 50 0 4 -11 7 -24 7 -34 0 -41 16 -22 45 26 40 54 32 77
-20 11 -25 22 -45 24 -45 3 0 5 36 5 79 l0 79 -63 11 c-35 6 -66 11 -68 11 -3
0 -20 -15 -38 -34z"/>
<path d="M2893 2196 c-34 -25 -64 -49 -67 -54 -3 -5 20 -28 52 -50 l58 -41 47
31 47 31 -31 56 c-17 31 -34 59 -38 63 -4 5 -34 -12 -68 -36z"/>
<path d="M2997 2063 c-34 -23 -38 -31 -33 -57 3 -17 8 -57 12 -88 3 -33 11
-58 18 -58 6 1 40 16 76 35 l65 34 -42 1 c-38 0 -43 3 -43 23 0 27 26 67 43
67 7 0 23 -17 36 -38 l25 -37 12 40 c17 54 17 82 0 88 -8 3 -41 8 -73 11 -52
5 -62 3 -96 -21z"/>
</g>
</svg>
